<?xml version="1.0" encoding="utf-8"?>
<!-- Generator: Adobe Illustrator 22.1.0, SVG Export Plug-In . SVG Version: 6.00 Build 0)  -->
<svg version="1.1" id="レイヤー_1" xmlns="http://www.w3.org/2000/svg" xmlns:xlink="http://www.w3.org/1999/xlink" x="0px"
	 y="0px" width="125.5px" height="56.1px" viewBox="0 0 125.5 56.1" style="enable-background:new 0 0 125.5 56.1;"
	 xml:space="preserve">
<style type="text/css">
	.st0{fill:#231815;}
	.st1{fill:#004DA0;}
	.st2{fill:#FFFFFF;}
</style>
<g>
	<path class="st0" d="M9.9,47.1c-1.5,0-2.6,1.2-2.6,2.6v6.4h1.9v-3.6h4.7v-1.9H9.2v-0.9c0-0.4,0.3-0.8,0.8-0.8h3.9v-1.9H9.9"/>
	<rect x="33.7" y="47.1" class="st0" width="1.9" height="9"/>
	<path class="st0" d="M57.4,53.5v-6.4h-1.9v6.4c0,1.5,1.2,2.6,2.6,2.6h3.9v-1.9h-3.9C57.8,54.2,57.4,53.9,57.4,53.5"/>
	<path class="st0" d="M115.8,50.6h-1.4c-0.4,0-0.8-0.3-0.8-0.5v-0.6c0-0.3,0.3-0.5,0.8-0.5h3.7v-1.9h-3.7c-1.5,0-2.6,1.1-2.6,2.4
		v0.6c0,1.3,1.2,2.4,2.6,2.4h1.4c0.4,0,0.8,0.3,0.8,0.6v0.6c0,0.3-0.4,0.6-0.8,0.6h-3.7v1.9h3.7c1.5,0,2.6-1.1,2.6-2.5v-0.6
		C118.4,51.7,117.2,50.6,115.8,50.6"/>
	<path class="st0" d="M88.9,47.1h-0.6c-0.7,0-1.2,0.3-1.7,0.7c-0.5-0.4-1-0.7-1.7-0.7h-0.6c-1.5,0-2.6,1.2-2.6,2.6v6.4h1.9v-6.4
		c0-0.4,0.3-0.8,0.8-0.8h0.6c0.4,0,0.8,0.3,0.8,0.8v6.4h1.9v-6.4c0-0.4,0.3-0.8,0.8-0.8h0.6c0.4,0,0.8,0.3,0.8,0.8v6.4h1.9v-6.4
		C91.6,48.3,90.4,47.1,88.9,47.1"/>
	<g>
		<path class="st1" d="M10.6,0C4.8,0,0,4.2,0,9.4v23.9c0,5.2,4.8,9.4,10.6,9.4h104.3c5.9,0,10.6-4.2,10.6-9.4V9.4
			c0-5.2-4.8-9.4-10.6-9.4H10.6z"/>
		<g>
			<path class="st2" d="M82.3,34.7c0,0.6-0.6,1.1-1.3,1.1c-0.7,0-1.3-0.5-1.3-1.1V4.5h-3.3v30.2c0,0.6-0.6,1.1-1.3,1.1
				c-0.7,0-1.3-0.5-1.3-1.1V4.5h-3.3v30.2c0,2.1,2.1,3.8,4.6,3.8c1.1,0,2.1-0.3,2.9-0.9c0,0,0,0,0.1,0c0,0,0.1,0,0.1,0
				c0.8,0.6,1.9,0.9,2.9,0.9c2.6,0,4.6-1.7,4.6-3.8V4.5h-0.1h-3.2V34.7"/>
			<path class="st2" d="M92.9,12.1H89h-0.1v2.7h4.1c0.7,0,1.3,0.5,1.3,1.1c0,0,0,4.6,0,4.8c-0.2,0-1.3,0-1.3,0
				c-2.6,0-4.6,1.7-4.6,3.8v10.1c0,2.1,2.1,3.8,4.6,3.8h4.6V15.9C97.6,13.8,95.5,12.1,92.9,12.1z M94.2,35.6c-0.2,0-1.3,0-1.3,0
				c-0.7,0-1.3-0.5-1.3-1.1V24.5c0-0.6,0.6-1.1,1.3-1.1c0,0,1.3,0,1.3,0C94.2,23.6,94.2,35.4,94.2,35.6z"/>
			<path class="st2" d="M24.3,11.8c-2.6,0-4.6,1.7-4.6,3.8v19.3c0,2.1,2.1,3.8,4.6,3.8c2.6,0,4.6-1.7,4.6-3.8V15.6
				C29,13.5,26.9,11.8,24.3,11.8z M25.7,34.8c0,0.6-0.6,1.1-1.3,1.1c-0.7,0-1.3-0.5-1.3-1.1V15.6c0-0.6,0.6-1.1,1.3-1.1
				c0.7,0,1.3,0.5,1.3,1.1V34.8z"/>
			<path class="st2" d="M52.7,12.1h-3.2v26.2h3.3V12.1H52.7z"/>
			<path class="st2" d="M39.3,5.3C39.3,5.3,39.3,5.3,39.3,5.3c-0.1,0-0.1,0-0.1,0c-0.8-0.6-1.9-0.9-2.9-0.9c-2.6,0-4.6,1.7-4.6,3.8
				v30.2H35V8.2c0-0.6,0.6-1.1,1.3-1.1c0.7,0,1.3,0.5,1.3,1.1v30.2h3.3V8.2c0-0.6,0.6-1.1,1.3-1.1c0.7,0,1.3,0.5,1.3,1.1v30.2h3.3
				V8.2c0-2.1-2.1-3.8-4.6-3.8C41.2,4.4,40.2,4.7,39.3,5.3z"/>
			<path class="st2" d="M118.1,31.4v3.4c0,0.6-0.6,1.1-1.3,1.1c-0.7,0-1.3-0.5-1.3-1.1l0-0.3c0,0,0-7.4,0-7.6c0.2,0,6,0,6,0V15.6
				c0-2.1-2.1-3.8-4.6-3.8c-2.6,0-4.6,1.7-4.6,3.8v18.9l0,0.3c0,2.1,2.1,3.8,4.6,3.8c2.6,0,4.6-1.7,4.6-3.8v-3.4H118.1z M115.5,15.6
				c0-0.6,0.6-1.1,1.3-1.1c0.7,0,1.3,0.5,1.3,1.1c0,0,0,8.4,0,8.6c-0.2,0-2.4,0-2.6,0C115.5,24,115.5,15.6,115.5,15.6z"/>
			<path class="st2" d="M61.4,18.4c0,1-0.5,2.8-1.1,3.7c0,0-0.1,0.2-0.2,0.3c-0.1-0.1-0.2-0.3-0.2-0.3c-0.6-0.9-1.1-2.7-1.1-3.7
				v-6.3h-3.3v6.3c0,1.4,0.6,3.4,1.4,4.7c0,0,1.3,2,1.4,2.1c-0.1,0.1-1.4,2.1-1.4,2.1c-0.8,1.2-1.4,3.3-1.4,4.7v6.3h3.3V32
				c0-1,0.5-2.8,1.1-3.7c0,0,0.1-0.2,0.2-0.3c0.1,0.1,0.2,0.3,0.2,0.3c0.6,0.9,1.1,2.7,1.1,3.7v6.3h3.3V32c0-1.4-0.6-3.4-1.4-4.7
				c0,0-1.3-2-1.4-2.1c0.1-0.1,1.4-2.1,1.4-2.1c0.8-1.3,1.4-3.3,1.4-4.7v-6.3h-0.1h-3.2V18.4"/>
			<path class="st2" d="M10.6,4.2c-3.5,0-6.4,2.4-6.4,5.2v23.9c0,2.9,2.9,5.2,6.4,5.2c3.5,0,6.4-2.1,6.4-4.8v-8.2h-3.3v8.2
				c0,1.1-1.4,2.1-3.1,2.1c-1.7,0-3.1-1.2-3.1-2.6V9.4c0-1.4,1.4-2.6,3.1-2.6c1.7,0,3.1,1,3.1,2.1v6.8h3.3V9
				C17.1,6.3,14.2,4.2,10.6,4.2"/>
			<path class="st2" d="M106.8,23.6c0,1.3-0.3,3.3-0.6,4.6l-1.2,4.4c0,0-0.1,0.2-0.1,0.4c-0.2-0.8-1.4-5-1.4-5
				c-0.3-1.2-0.6-3.3-0.6-4.5V12.1h-3.3v11.4c0,1.5,0.3,3.7,0.6,5.1l0.1,0.3c0,0,2.8,9.4,2.8,9.4h3.4l2.9-9.6
				c0.4-1.5,0.7-3.7,0.7-5.2V12.1H110h-3.2V23.6"/>
			<path class="st2" d="M51.1,3.7l-2.9,2.9l3,3l3-3L51.1,3.7L51.1,3.7z"/>
		</g>
	</g>
</g>
</svg>
