<?xml version="1.0" encoding="iso-8859-1" ?>
<!-- Generator: Adobe Illustrator 22.0.0, SVG Export Plug-In . SVG Version: 6.00 Build 0)  -->
<svg version="1.1" id="svg8" inkscape:version="0.92.1 r15371" sodipodi:docname="bilibili-fill.svg" xmlns:cc="http://creativecommons.org/ns#" xmlns:dc="http://purl.org/dc/elements/1.1/" xmlns:inkscape="http://www.inkscape.org/namespaces/inkscape" xmlns:rdf="http://www.w3.org/1999/02/22-rdf-syntax-ns#" xmlns:sodipodi="http://sodipodi.sourceforge.net/DTD/sodipodi-0.dtd" xmlns:svg="http://www.w3.org/2000/svg" xmlns="http://www.w3.org/2000/svg" xmlns:xlink="http://www.w3.org/1999/xlink" x="0px" y="0px" viewBox="0 0 200 200" style="enable-background:new 0 0 200 200;" xml:space="preserve">
  <sodipodi:namedview bordercolor="#666666" borderopacity="1" gridtolerance="10" guidetolerance="10" id="namedview8" inkscape:current-layer="svg8" inkscape:cx="87.136404" inkscape:cy="76.25437" inkscape:pageopacity="0" inkscape:pageshadow="2" inkscape:window-height="1040" inkscape:window-maximized="1" inkscape:window-width="1871" inkscape:window-x="49" inkscape:window-y="0" inkscape:zoom="2.36" objecttolerance="10" pagecolor="#ffffff" showgrid="false"></sodipodi:namedview>
  <path id="path6" style="fill:#FFFFFF;" d="M161.854,5.384c4.829,5.274,4.83,13.826,0.002,19.102
	c-0.001,0.001-0.002,0.002-0.002,0.003l-11.306,12.34h11.573c20.486,0,37.093,18.142,37.093,40.521c0,0.004,0,0.007,0,0.011v81.042
	c0,22.379-16.607,40.521-37.093,40.521H38.479c-20.486,0-37.093-18.142-37.093-40.521V77.36c0-22.379,16.607-40.521,37.093-40.521
	c0,0,0,0,0,0h11.533l-11.286-12.34c-4.913-5.181-5.051-13.732-0.309-19.099S50.987-0.118,55.9,5.063
	c0.103,0.109,0.204,0.219,0.304,0.332l26.232,28.657c0.781,0.854,1.434,1.783,1.958,2.777h31.781
	c0.524-0.994,1.187-1.945,1.968-2.788l26.222-28.657c4.828-5.276,12.656-5.277,17.486-0.003
	C161.852,5.382,161.853,5.383,161.854,5.384z M162.121,63.95H38.479c-6.473-0.003-11.853,5.45-12.335,12.502l-0.03,1.016v81.042
	c0,7.121,5.045,12.956,11.444,13.464l0.92,0.043h123.642c6.473,0.003,11.853-5.45,12.335-12.502l0.03-1.005V77.468
	c0-7.456-5.539-13.507-12.364-13.507V63.95z M63.207,90.964c6.825,0,12.364,6.051,12.364,13.507v13.507
	c0.002,7.46-5.531,13.509-12.36,13.512s-12.366-6.043-12.369-13.502c0-0.003,0-0.006,0-0.009v-13.507
	C50.843,97.016,56.382,90.964,63.207,90.964z M137.392,90.964c6.825,0,12.364,6.051,12.364,13.507v13.507
	c0.005,7.46-5.526,13.512-12.355,13.518s-12.369-6.037-12.374-13.497c0-0.007,0-0.014,0-0.021v-13.507
	C125.028,97.016,130.567,90.964,137.392,90.964L137.392,90.964z" />
  <ellipse id="path4489" style="fill:#FFD400;" cx="62.924" cy="111.441" rx="18.008" ry="27.966" />
</svg>