<?xml version="1.0" standalone="no"?><!DOCTYPE svg PUBLIC "-//W3C//DTD SVG 1.1//EN" "http://www.w3.org/Graphics/SVG/1.1/DTD/svg11.dtd"><svg t="1577521026564" class="icon" viewBox="0 0 1024 1024" version="1.1" xmlns="http://www.w3.org/2000/svg" p-id="12558" xmlns:xlink="http://www.w3.org/1999/xlink" width="200" height="200"><defs><style type="text/css"></style></defs><path d="M981.643 472.056v-0.113l-1.471-2.263c-19.921-29.882-44.596-55.01-73.459-74.817-2.263-32.937-9.734-64.29-22.184-93.379-15.167-35.54-37.918-68.365-67.686-97.34-29.428-28.75-62.818-50.708-99.151-65.422-35.88-14.601-75.27-21.958-117.035-21.958-62.706 0-120.318 17.317-171.252 51.386-28.749 19.242-53.65 42.332-73.91 68.705-15.28-3.849-31.466-5.886-48.218-5.886-25.24 0-49.462 4.527-71.873 13.582s-43.011 22.638-61.234 40.182c-18.45 18.11-32.485 38.37-41.653 60.328-9.508 22.411-14.375 46.633-14.375 71.987 0 7.017 0.34 13.922 1.132 20.713C95.28 452.136 74 470.698 55.776 492.883 19.217 537.026 0.655 588.413 0.655 645.685c0 33.277 6.338 64.856 18.675 94.058 12.224 28.862 30.674 55.461 54.783 78.778 23.995 23.203 50.934 40.973 80.023 52.745 29.202 11.884 61.007 17.883 94.51 17.883h498.7c37.352 0 72.893-6.678 105.717-19.92 32.824-13.357 63.045-33.278 89.644-59.197 26.712-26.033 47.312-55.688 61.12-88.06 13.81-32.597 20.828-67.911 20.828-104.81 0.112-52.293-14.376-101.19-43.012-145.106z m-520.319 63.838c10.753 0 20.94 4.188 28.636 11.884l77.646 77.533V346.42c0-22.297 18.11-40.52 40.521-40.52 22.298 0 40.52 18.223 40.52 40.633v278.78l77.534-77.534c7.696-7.696 17.77-11.884 28.636-11.884s20.94 4.188 28.636 11.884c15.846 15.846 15.846 41.54 0 57.273L636.65 751.74c-7.697 7.696-17.883 11.884-28.636 11.884s-21.053-4.188-28.636-11.884l-146.69-146.69c-15.846-15.846-15.846-41.54 0-57.273 7.583-7.696 17.77-11.884 28.636-11.884z" p-id="12559" fill="#1296db"></path></svg>