<?xml version="1.0" encoding="utf-8"?>
<!-- Generator: Adobe Illustrator 22.0.0, SVG Export Plug-In . SVG Version: 6.00 Build 0)  -->
<svg version="1.1" id="图层_1" xmlns="http://www.w3.org/2000/svg" xmlns:xlink="http://www.w3.org/1999/xlink" x="0px" y="0px"
	 viewBox="0 0 200 200" style="enable-background:new 0 0 200 200;" xml:space="preserve">
<path d="M100,200c55.2,0,100-44.8,100-100S155.2,0,100,0C44.8,0,0,44.8,0,100S44.8,200,100,200z M100,12.5
	c48.3,0,87.5,39.2,87.5,87.5s-39.2,87.5-87.5,87.5S12.5,148.3,12.5,100C12.5,51.7,51.7,12.5,100,12.5z M100,137.9l44.2-44.2
	l-8.8-8.8L100,120.3L64.6,84.9l-8.8,8.8L100,137.9z"/>
</svg>
