<?xml version="1.0" standalone="no" ?>
<!DOCTYPE svg PUBLIC "-//W3C//DTD SVG 1.1//EN" "http://www.w3.org/Graphics/SVG/1.1/DTD/svg11.dtd">
<svg t="1581645521889" class="icon" viewBox="0 0 1024 1024" version="1.1" xmlns="http://www.w3.org/2000/svg" p-id="5271" xmlns:xlink="http://www.w3.org/1999/xlink" width="200" height="200">
  <defs>
    <style type="text/css"></style>
  </defs>
  <path fill="#eaeaea" d="M512 712.106667a35.84 35.84 0 0 1-26.453333-11.52L264.533333 465.066667a35.84 35.84 0 1 1 52.48-49.066667L512 623.786667l194.56-207.36a35.84 35.84 0 1 1 52.48 49.066666l-221.44 235.52a35.84 35.84 0 0 1-25.6 11.093334zM512 0a512 512 0 1 0 512 512A512 512 0 0 0 512 0z m0 72.106667a439.466667 439.466667 0 0 1 170.666667 844.373333A439.466667 439.466667 0 0 1 200.533333 200.533333a438.613333 438.613333 0 0 1 311.04-128z" p-id="5272"></path>
</svg>