<?xml version="1.0" standalone="no"?><!DOCTYPE svg PUBLIC "-//W3C//DTD SVG 1.1//EN" "http://www.w3.org/Graphics/SVG/1.1/DTD/svg11.dtd"><svg t="1576509270706" class="icon" viewBox="0 0 1024 1024" version="1.1" xmlns="http://www.w3.org/2000/svg" p-id="2765" xmlns:xlink="http://www.w3.org/1999/xlink" width="200" height="200"><defs><style type="text/css"></style></defs><path d="M196.09412 571.107189c-10.733459 0-20.969591-0.534166-31.128975 0.127913-14.284331 0.934279-26.220175-2.143826-34.175357-15.238053-8.523117-14.036691-10.626012-63.553455-3.678786-78.476329 3.094478-6.641257 7.840572-13.083993 13.313214-17.959024 64.209394-57.184397 128.694057-114.055662 193.110159-171.001629 47.684022-42.154076 95.374184-84.302011 143.061276-126.451994 22.427802-19.824511 48.768727-19.669992 71.179133 0.157589C659.716296 261.298168 771.68953 360.293833 883.683231 459.262892c20.982894 18.544355 23.25668 82.591043 5.160533 102.521978-5.634324 6.205329-12.4301 9.416464-20.875446 9.348925-13.08911-0.103354-26.177196-0.026606-40.044018-0.026606l0 6.618744c0 85.98842-0.044002 137.176243 0.023536 223.164662 0.024559 28.955472-11.979846 51.120284-36.818557 66.079998-12.128225 7.303336-25.545816 9.715269-39.577391 9.712199-159.714562-0.039909-319.43117-0.016373-479.145731-0.070608-5.187139-0.00307-10.465352-0.188288-15.545044-1.125637-36.654828-6.752798-60.725036-36.19127-60.751642-74.27668-0.057305-85.98842-0.016373-137.176243-0.016373-223.164662C196.09412 575.908542 196.09412 573.774949 196.09412 571.107189L196.09412 571.107189 196.09412 571.107189z" p-id="2766" fill="#ffffff"></path><path d="M751.575424 892.032386l-0.028653 0c-72.542176-0.019443-145.08333-0.023536-217.625506-0.028653-87.174432-0.00614-174.348863-0.013303-261.522272-0.041956-5.382591-0.00307-11.764951-0.169869-18.325367-1.38044-43.817971-8.072863-73.284073-43.983747-73.315796-89.360214-0.039909-59.501162-0.032746-102.341876-0.024559-151.575184 0.00307-19.620873 0.00614-40.255843 0.007163-63.368236-1.36816-0.01535-2.719948-0.023536-4.069689-0.023536-4.178159 0-7.580652 0.095167-10.707876 0.297782-1.89721 0.124843-3.759627 0.188288-5.53097 0.188288-19.193131 0-33.579793-7.661494-42.760896-22.772656-11.112082-18.299785-13.746072-73.010851-4.475941-92.924389 3.998057-8.580422 10.04068-16.726963 17.018605-22.942525 51.783387-46.118364 104.603383-92.791359 155.684782-137.927349 12.490475-11.037381 24.980951-22.073738 37.46938-33.113165 32.362059-28.609595 64.729234-57.217143 97.095385-85.824691l45.966914-40.628326c13.795191-12.19474 29.569456-18.639522 45.617967-18.639522 16.124236 0 31.995715 6.502088 45.899376 18.802228 106.268302 94.01421 216.141712 191.160761 335.899236 296.992111 18.052145 15.95232 21.629623 47.292096 22.328541 60.026118 0.568958 10.336416 1.095961 45.520753-15.96767 64.316841-8.665357 9.54233-19.424398 14.381545-31.981389 14.381545l-0.38067-0.002047c-8.125051-0.063445-16.253172-0.058328-24.572652-0.044002-0.001023 22.190395-0.004093 42.103934-0.008186 61.033052-0.008186 49.993624-0.016373 93.171006 0.030699 153.406902 0.028653 34.879392-14.859429 61.540611-44.249807 79.241762C785.734408 888.135636 770.20676 892.032386 751.575424 892.032386zM176.670745 555.554982c3.2623 0 6.557346 0.052189 9.743922 0.102331 3.170203 0.050142 6.448876 0.102331 9.67843 0.102331l15.349593 0 0 15.349593c0 2.675946 0 4.817726-0.00307 6.962575 0 26.467815-0.004093 49.65798-0.007163 71.580269-0.008186 49.225121-0.01535 92.057649 0.024559 151.549601 0.021489 30.568203 18.934235 53.80237 48.183396 59.1911 4.13825 0.763386 8.778944 0.86981 12.771885 0.871857 87.167269 0.028653 174.33863 0.035816 261.511016 0.041956 72.5432 0.005117 145.086399 0.010233 217.629599 0.028653l0.021489 15.349593 0-15.349593c13.07069 0 23.122627-2.387373 31.633465-7.512091 20.069081-12.088316 29.407774-28.90226 29.388331-52.918233-0.047072-60.252269-0.038886-103.434767-0.030699-153.436578 0.004093-21.372773 0.008186-43.99705 0.008186-69.740364l0-21.967314 15.349593 0c4.197602 0 8.322549-0.007163 12.398378-0.014326 9.43386-0.017396 18.600637-0.030699 27.76639 0.039909l0.137123 0.001023c3.787256 0 6.468318-1.251503 9.254781-4.319375 4.849448-5.342682 9.17087-21.482267 8.043187-41.99444-1.116427-20.291139-7.005554-34.288944-12.004405-38.70758C753.756089 364.930433 643.878586 267.779789 537.605168 173.761486c-8.321526-7.361665-16.919345-11.094686-25.557072-11.094686-8.56405 0-17.072841 3.681856-25.285896 10.942213l-45.967938 40.629349c-32.365128 28.606525-64.73128 57.21305-97.093339 85.822644-12.490475 11.041474-24.982998 22.079878-37.47552 33.118282-51.058886 45.116547-103.855346 91.769077-155.592684 137.846508-3.868097 3.446495-7.371898 8.17724-9.608845 12.979616-1.410116 3.028986-3.349281 14.508435-2.541893 32.395828 0.807389 17.860786 3.75758 28.881794 5.427616 31.631418 3.003404 4.943592 6.816243 8.009418 16.521279 8.009418 1.106194 0 2.294252-0.040932 3.532453-0.121773C167.775144 555.669592 171.812087 555.554982 176.670745 555.554982z" p-id="2767" fill="#ffffff"></path></svg>