<?xml version="1.0" standalone="no"?><!DOCTYPE svg PUBLIC "-//W3C//DTD SVG 1.1//EN" "http://www.w3.org/Graphics/SVG/1.1/DTD/svg11.dtd"><svg t="1577238065449" class="icon" viewBox="0 0 1024 1024" version="1.1" xmlns="http://www.w3.org/2000/svg" p-id="2542" xmlns:xlink="http://www.w3.org/1999/xlink" width="200" height="200"><defs><style type="text/css"></style></defs><path d="M512 896c-6.4 0-16-3.2-22.4-6.4-28.8-22.4-275.2-214.4-326.4-288-57.6-76.8-67.2-118.4-67.2-192C96 256 208 128 348.8 128c60.8 0 118.4 22.4 163.2 64 44.8-41.6 102.4-64 163.2-64 140.8 0 252.8 128 252.8 281.6 0 70.4-9.6 112-67.2 192-51.2 70.4-300.8 265.6-326.4 288-6.4 3.2-16 6.4-22.4 6.4z" p-id="2543" fill="#707070"></path></svg>