<?xml version="1.0" standalone="no"?><!DOCTYPE svg PUBLIC "-//W3C//DTD SVG 1.1//EN" "http://www.w3.org/Graphics/SVG/1.1/DTD/svg11.dtd"><svg t="1577522573023" class="icon" viewBox="0 0 1024 1024" version="1.1" xmlns="http://www.w3.org/2000/svg" p-id="9386" xmlns:xlink="http://www.w3.org/1999/xlink" width="200" height="200"><defs><style type="text/css"></style></defs><path d="M219.434667 128h585.130666C831.445333 128 853.333333 149.461333 853.333333 176.042667v95.914666c0 26.453333-21.802667 48.042667-48.768 48.042667H219.434667C192.554667 320 170.666667 298.538667 170.666667 271.957333V176.042667C170.666667 149.589333 192.469333 128 219.434667 128zM333.226667 176.042667c-26.88 0-48.768 21.461333-48.768 48s21.76 48.042667 48.768 48.042666c26.88 0 48.768-21.504 48.768-48.042666 0-26.538667-21.888-48-48.768-48zM219.434667 416h585.130666c26.88 0 48.768 21.461333 48.768 48.042667v95.957333c0 26.453333-21.802667 48-48.768 48H219.434667c-26.88 0-48.768-21.461333-48.768-48v-96.085333c0-26.453333 21.802667-47.914667 48.768-47.914667z m113.749333 47.914667c-26.88 0-48.768 21.504-48.768 48.042666 0 26.453333 21.76 48.042667 48.768 48.042667 26.88 0 48.768-21.504 48.768-48.042667 0-26.453333-21.888-48.042667-48.768-48.042666zM219.434667 704h585.130666c26.88 0 48.768 21.461333 48.768 48.042667v95.914666c0 26.453333-21.802667 48.042667-48.768 48.042667H219.434667C192.554667 896 170.666667 874.538667 170.666667 847.957333v-95.914666c0-26.581333 21.802667-48.042667 48.768-48.042667z m113.749333 48.042667c-26.88 0-48.768 21.461333-48.768 48 0 26.453333 21.76 48.042667 48.768 48.042666 26.88 0 48.768-21.504 48.768-48.042666 0-26.538667-21.888-48-48.768-48z" p-id="9387" fill="#13227a"></path></svg>