<?xml version="1.0" standalone="no"?><!DOCTYPE svg PUBLIC "-//W3C//DTD SVG 1.1//EN" "http://www.w3.org/Graphics/SVG/1.1/DTD/svg11.dtd"><svg t="1578812566998" class="icon" viewBox="0 0 1024 1024" version="1.1" xmlns="http://www.w3.org/2000/svg" p-id="3195" xmlns:xlink="http://www.w3.org/1999/xlink" width="200" height="200"><defs><style type="text/css"></style></defs><path d="M509.496889 77.312c192.455111 0 349.013333 145.493333 349.013333 324.238222 0 308.878222-250.794667 480.199111-345.031111 533.617778-93.468444-65.194667-352.995556-267.178667-352.995555-533.617778 0-178.744889 156.558222-324.266667 349.013333-324.266666z m0-76.714667c-234.097778 0-423.765333 179.000889-423.765333 400.952889 0 373.048889 423.765333 621.852444 423.765333 621.852445s423.793778-193.564444 423.793778-621.852445C933.262222 179.598222 743.537778 0.568889 509.496889 0.568889z m0 370.773334a74.808889 74.808889 0 0 1 69.12 47.36 78.165333 78.165333 0 0 1-16.213333 83.598222 73.415111 73.415111 0 0 1-81.521778 16.611555 76.743111 76.743111 0 0 1-46.165334-70.855111c0-42.382222 33.479111-76.714667 74.808889-76.714666z m0-76.714667c-82.602667 0-149.560889 68.693333-149.560889 153.429333 0 84.707556 66.958222 153.400889 149.560889 153.400889s149.560889-68.693333 149.560889-153.400889c0-84.764444-66.958222-153.429333-149.560889-153.429333z" p-id="3196"></path></svg>