<?xml version="1.0" standalone="no"?><!DOCTYPE svg PUBLIC "-//W3C//DTD SVG 1.1//EN" "http://www.w3.org/Graphics/SVG/1.1/DTD/svg11.dtd"><svg t="1581946947328" class="icon" viewBox="0 0 1024 1024" version="1.1" xmlns="http://www.w3.org/2000/svg" p-id="2982" xmlns:xlink="http://www.w3.org/1999/xlink" width="200" height="200"><defs><style type="text/css"></style></defs><path d="M888.34834 0.000284H127.658773A126.776854 126.776854 0 0 0 0.853475 126.777138v295.82214a126.776854 126.776854 0 0 0 126.805298 126.805298v169.045287a211.313719 211.313719 0 0 0 169.045287 207.075498v46.506653a42.268433 42.268433 0 0 0 84.508421 0V887.466705c0-23.324438-18.91555-42.268433-42.268433-42.268433a126.776854 126.776854 0 0 1-126.776854-126.776854v-169.045286h302.16525a241.3226 241.3226 0 0 0-42.268433 146.63107 42.268433 42.268433 0 1 0 84.536865 0c-1.706666-146.63107 120.433744-146.63107 120.433745-146.63107a42.268433 42.268433 0 0 0 42.268433-42.268433 54.527985 54.527985 0 0 0 0-8.021331 44.799988 44.799988 0 0 0 0-8.021331v-142.421294a48.611542 48.611542 0 0 1 42.268432-52.849763 48.611542 48.611542 0 0 1 42.268433 52.849763v369.777675a126.776854 126.776854 0 0 1-126.805298 126.776854c-23.324438 0-42.239988 18.91555-42.239988 42.268433v84.536865a42.268433 42.268433 0 0 0 84.508421 0v-46.506654a211.313719 211.313719 0 0 0 169.045286-207.075498v-169.045286a126.776854 126.776854 0 0 0 126.805298-126.776854v-295.82214A126.776854 126.776854 0 0 0 888.319895 0.000284z m42.268433 422.627439c0 23.324438-18.91555 42.239988-42.268433 42.239988v-116.195523a132.693296 132.693296 0 0 0-126.776854-137.386629 122.993744 122.993744 0 0 0-105.642637 62.151094 150.015958 150.015958 0 1 0-21.134216 76.060423v115.370635H127.630329c-23.324438 0-42.239988-18.91555-42.239988-42.239988v-295.82214c0-23.352882 18.91555-42.268433 42.268432-42.268433H888.319895c23.324438 0 42.268433 18.91555 42.268433 42.239988v295.82214z m-359.224789-147.91107a63.402649 63.402649 0 1 1-126.776854 0 63.402649 63.402649 0 0 1 126.776854 0z" fill="#000000" p-id="2983"></path></svg>