<?xml version="1.0" standalone="no"?><!DOCTYPE svg PUBLIC "-//W3C//DTD SVG 1.1//EN" "http://www.w3.org/Graphics/SVG/1.1/DTD/svg11.dtd"><svg t="1578812536195" class="icon" viewBox="0 0 1024 1024" version="1.1" xmlns="http://www.w3.org/2000/svg" p-id="2942" xmlns:xlink="http://www.w3.org/1999/xlink" width="200" height="200"><defs><style type="text/css"></style></defs><path d="M512.085191 1023.998862a315.647211 315.647211 0 0 1-224.625216-93.013101L93.014239 736.56847A315.4481 315.4481 0 0 1 0.001138 512.000142a315.4481 315.4481 0 0 1 93.013101-224.568327l194.445736-194.417292A315.561878 315.561878 0 0 1 512.085191 0.001422a315.4481 315.4481 0 0 1 224.568327 93.013101l194.445736 194.417292c123.875246 123.818357 123.875246 325.318298 0 449.136655l-194.445736 194.388847A315.476545 315.476545 0 0 1 512.085191 1023.998862z m0-938.66432a230.882978 230.882978 0 0 0-164.266256 68.010497l-194.445736 194.417292A230.797645 230.797645 0 0 0 85.334258 512.000142a230.683868 230.683868 0 0 0 68.038941 164.209367l194.445736 194.417292A230.854534 230.854534 0 0 0 512.085191 938.665742c62.037178 0 120.376588-24.177717 164.237812-68.010496l194.445736-194.417292c90.53844-90.566885 90.53844-237.908739 0-328.475623l-194.445736-194.388848A230.683868 230.683868 0 0 0 512.085191 85.334542z" p-id="2943"></path><path d="M668.443911 455.111396H540.444231v-127.99968a42.66656 42.66656 0 1 0-85.33312 0V455.111396h-127.99968a42.66656 42.66656 0 0 0 0 85.33312H455.111111v127.99968a42.66656 42.66656 0 1 0 85.33312 0V540.444516h127.99968a42.66656 42.66656 0 0 0 0-85.33312z" p-id="2944"></path></svg>