<?xml version="1.0" standalone="no" ?>
<!DOCTYPE svg PUBLIC "-//W3C//DTD SVG 1.1//EN" "http://www.w3.org/Graphics/SVG/1.1/DTD/svg11.dtd">
<svg t="1582093339686" class="icon" viewBox="0 0 1024 1024" version="1.1" xmlns="http://www.w3.org/2000/svg" p-id="16520" xmlns:xlink="http://www.w3.org/1999/xlink" width="200" height="200">
  <defs>
    <style type="text/css"></style>
  </defs>
  <path fill="#4c4c4c" d="M725.333333 650.453333v293.205334a21.333333 21.333333 0 0 1-32.298666 18.304L512 853.333333l-181.034667 108.629334a21.333333 21.333333 0 0 1-32.298666-18.346667v-293.12a341.333333 341.333333 0 1 1 426.666666 0z m-341.333333 50.048v130.133334l128-76.8 128 76.8v-130.133334A340.394667 340.394667 0 0 1 512 725.333333a340.394667 340.394667 0 0 1-128-24.832zM512 640a256 256 0 1 0 0-512 256 256 0 0 0 0 512z" p-id="16521"></path>
</svg>