<?xml version="1.0" encoding="UTF-8" standalone="no"?>
<svg
   xmlns:dc="http://purl.org/dc/elements/1.1/"
   xmlns:cc="http://creativecommons.org/ns#"
   xmlns:rdf="http://www.w3.org/1999/02/22-rdf-syntax-ns#"
   xmlns:svg="http://www.w3.org/2000/svg"
   xmlns="http://www.w3.org/2000/svg"
   xmlns:sodipodi="http://sodipodi.sourceforge.net/DTD/sodipodi-0.dtd"
   xmlns:inkscape="http://www.inkscape.org/namespaces/inkscape"
   id="svg8"
   height="200"
   width="200"
   data-spm-anchor-id="a313x.7781069.0.i7"
   p-id="1709"
   version="1.1"
   viewBox="0 0 1024 1024"
   class="icon"
   t="1575787476480"
   sodipodi:docname="bilibili-fill.svg"
   inkscape:version="0.92.1 r15371">
  <sodipodi:namedview
     pagecolor="#ffffff"
     bordercolor="#666666"
     borderopacity="1"
     objecttolerance="10"
     gridtolerance="10"
     guidetolerance="10"
     inkscape:pageopacity="0"
     inkscape:pageshadow="2"
     inkscape:window-width="1871"
     inkscape:window-height="1040"
     id="namedview8"
     showgrid="false"
     inkscape:zoom="2.36"
     inkscape:cx="87.136404"
     inkscape:cy="76.25437"
     inkscape:window-x="49"
     inkscape:window-y="0"
     inkscape:window-maximized="1"
     inkscape:current-layer="svg8" />
  <metadata
     id="metadata12">
    <rdf:RDF>
      <cc:Work
         rdf:about="">
        <dc:format>image/svg+xml</dc:format>
        <dc:type
           rdf:resource="http://purl.org/dc/dcmitype/StillImage" />
        <dc:title />
      </cc:Work>
    </rdf:RDF>
  </metadata>
  <defs
     id="defs4">
    <style
       id="style2"
       type="text/css" />
  </defs>
  <path
     style="fill:#13227a;stroke-width:1.24060726"
     id="path6"
     class="selected"
     data-spm-anchor-id="a313x.7781069.0.i1"
     p-id="1710"
     d="m 828.69037,27.565488 a 63.304737,69.155996 0 0 1 0,97.814242 l -57.88586,63.18093 h 59.25324 A 189.91421,207.46799 0 0 1 1019.9719,396.08397 V 811.01995 A 189.91421,207.46799 0 0 1 830.05775,1018.4879 H 197.01037 A 189.91421,207.46799 0 0 1 7.0961623,811.01995 V 396.08397 A 189.91421,207.46799 0 0 1 197.01037,188.61598 h 59.05066 L 198.27647,125.43505 A 63.304737,69.155996 0 1 1 287.76404,27.620814 L 422.07138,174.34218 c 4.00085,4.37066 7.34335,9.12859 10.02747,14.21848 h 162.71849 c 2.68412,-5.08989 6.07726,-9.95849 10.07811,-14.27381 L 739.15214,27.565488 a 63.304737,69.155996 0 0 1 89.53823,0 z M 830.05775,327.4259 H 197.01037 a 63.304737,69.155996 0 0 0 -63.15281,64.01079 l -0.15192,5.20052 v 414.936 c 0,36.45903 25.82832,66.33442 58.59486,68.93469 l 4.70987,0.22131 h 633.04738 a 63.304737,69.155996 0 0 0 63.1528,-64.01079 l 0.15193,-5.14521 v -414.936 c 0,-38.1741 -28.36052,-69.15599 -63.30473,-69.15599 z m -506.4379,138.31199 c 34.94421,0 63.30473,30.98189 63.30473,69.15599 v 69.15601 a 63.304737,69.155996 0 1 1 -126.60947,0 v -69.15601 c 0,-38.1741 28.36052,-69.15599 63.30474,-69.15599 z m 379.82842,0 c 34.94422,0 63.30474,30.98189 63.30474,69.15599 v 69.15601 a 63.304737,69.155996 0 1 1 -126.60947,0 v -69.15601 c 0,-38.1741 28.36051,-69.15599 63.30473,-69.15599 z" />
  <ellipse
     ry="143.18645"
     rx="92.203392"
     cy="570.57629"
     cx="322.16949"
     id="path4489"
     style="opacity:1;fill:#ffd400;stroke-width:5.11999989;fill-opacity:1" />
</svg>
