<?xml version="1.0" standalone="no" ?>
<!DOCTYPE svg PUBLIC "-//W3C//DTD SVG 1.1//EN" "http://www.w3.org/Graphics/SVG/1.1/DTD/svg11.dtd">
<svg t="1582093380937" class="icon" viewBox="0 0 1024 1024" version="1.1" xmlns="http://www.w3.org/2000/svg" p-id="16796" xmlns:xlink="http://www.w3.org/1999/xlink" width="200" height="200">
  <defs>
    <style type="text/css"></style>
  </defs>
  <path fill="#4c4c4c" d="M170.666667 85.333333h682.666666a42.666667 42.666667 0 0 1 42.666667 42.666667v768a42.666667 42.666667 0 0 1-42.666667 42.666667H170.666667a42.666667 42.666667 0 0 1-42.666667-42.666667V128a42.666667 42.666667 0 0 1 42.666667-42.666667z m42.666666 85.333334v682.666666h597.333334V170.666667H213.333333z m85.333334 85.333333h426.666666v170.666667H298.666667V256z m0 256h85.333333v85.333333H298.666667v-85.333333z m0 170.666667h85.333333v85.333333H298.666667v-85.333333z m170.666666-170.666667h85.333334v85.333333h-85.333334v-85.333333z m0 170.666667h85.333334v85.333333h-85.333334v-85.333333z m170.666667-170.666667h85.333333v256h-85.333333v-256z" p-id="16797"></path>
</svg>