<?xml version="1.0" encoding="utf-8" ?>
<!-- Generator: Adobe Illustrator 22.0.0, SVG Export Plug-In . SVG Version: 6.00 Build 0)  -->
<svg version="1.1" id="图层_1" xmlns="http://www.w3.org/2000/svg" xmlns:xlink="http://www.w3.org/1999/xlink" x="0px" y="0px" viewBox="0 0 200 200" style="enable-background:new 0 0 200 200;" xml:space="preserve">
  <path fill="#eaeaea" d="M186.8,158.7L186.8,158.7L186.8,158.7L186.8,158.7z M200,100C200,44.9,155.1,0,100,0S0,44.9,0,100s44.9,100,100,100
	C155.1,200,200,155.1,200,100 M100,185.6c-47.2,0-85.7-38.4-85.7-85.7c0-47.2,38.4-85.7,85.7-85.7c47.2,0,85.7,38.4,85.7,85.7
	C185.6,147.2,147.2,185.6,100,185.6 M141,131.3l-30.9-31L141,69.7c2.8-2.8,2.8-7.4,0-10.1c-2.8-2.8-7.4-2.8-10.1,0L100,90.1
	L69.4,59.6c-2.8-2.8-7.4-2.8-10.1,0c-2.8,2.8-2.8,7.4,0,10.1l30.4,30.6l-30.6,30.3c-2.8,2.8-2.8,7.4,0,10.1c1.5,1.5,3.2,2.1,5,2.1
	c1.8,0,3.7-0.7,5-2.1l30.7-30.4l31,31c1.3,1.3,3.2,2.1,5,2.1c1.8,0,3.7-0.7,5-2.1C143.7,138.7,143.7,134.1,141,131.3" />
</svg>