<?xml version="1.0" standalone="no"?>
<!DOCTYPE svg PUBLIC "-//W3C//DTD SVG 20010904//EN"
 "http://www.w3.org/TR/2001/REC-SVG-20010904/DTD/svg10.dtd">
<svg version="1.0" xmlns="http://www.w3.org/2000/svg"
 width="510.000000pt" height="600.000000pt" viewBox="0 0 510.000000 600.000000"
 preserveAspectRatio="xMidYMid meet">

<g transform="translate(0.000000,600.000000) scale(0.100000,-0.100000)"
fill="#000000" stroke="none">
<path d="M3722 5903 c-5 -10 -24 -83 -41 -163 -18 -80 -43 -194 -57 -253 -14
-60 -23 -111 -21 -113 10 -10 37 10 37 28 0 23 97 466 105 479 4 5 12 9 18 9
7 0 105 -92 220 -205 l207 -205 48 0 c26 0 116 9 200 20 186 24 397 37 390 24
-12 -19 -235 -510 -242 -531 -9 -27 21 -88 59 -123 l27 -25 -26 52 c-40 79
-42 70 75 321 22 46 39 86 39 87 0 2 25 58 55 125 31 66 53 125 50 130 -7 11
-57 7 -369 -26 -126 -13 -243 -24 -261 -24 -28 0 -45 13 -116 86 -46 47 -141
139 -211 205 -131 122 -166 141 -186 102z"/>
<path d="M2129 5901 c-49 -16 -75 -33 -134 -92 -33 -32 -85 -83 -115 -112 -66
-64 -121 -169 -173 -333 -33 -104 -43 -167 -51 -328 -4 -63 -7 -72 -33 -90
-67 -48 -282 -260 -333 -327 -30 -40 -102 -120 -160 -178 -58 -58 -128 -135
-155 -171 -27 -36 -52 -67 -55 -70 -16 -14 -159 -224 -184 -270 -4 -8 29 23
74 70 61 64 77 77 65 52 -9 -19 -15 -35 -13 -37 2 -2 45 43 96 100 60 67 116
118 158 144 35 22 64 38 64 35 0 -2 -36 -75 -79 -162 -92 -182 -125 -274 -151
-427 -23 -135 -44 -457 -34 -531 l6 -54 49 98 c64 132 75 140 84 62 8 -66 19
-77 29 -27 l7 32 37 -70 c38 -72 110 -186 124 -195 17 -12 32 -145 21 -186
-84 -305 -95 -371 -74 -426 5 -13 28 -33 52 -46 122 -65 189 -104 195 -114 4
-6 -24 -39 -62 -74 l-69 -64 -95 4 c-52 2 -105 7 -117 11 -42 14 -38 -21 11
-117 25 -50 46 -101 46 -114 0 -13 -20 -65 -45 -115 -49 -101 -54 -119 -27
-119 19 0 188 28 213 36 9 2 33 -12 56 -33 136 -129 145 -136 153 -122 4 8 15
57 24 109 10 52 19 102 21 110 3 8 50 42 105 75 60 36 99 66 98 74 -2 8 -48
37 -103 65 l-100 51 -17 70 c-28 120 -28 120 43 78 38 -23 75 -55 96 -84 23
-32 46 -52 70 -60 29 -9 39 -21 59 -65 18 -41 21 -59 14 -81 -5 -15 -14 -67
-20 -114 -5 -47 -19 -105 -31 -128 -19 -39 -41 -131 -32 -131 5 0 -37 -62 -47
-70 -4 -3 -26 -31 -50 -63 l-43 -58 22 -22 c27 -30 26 -33 -4 -41 -27 -7 -65
-39 -65 -56 0 -5 7 -7 14 -4 19 7 81 -41 107 -83 16 -25 18 -37 10 -52 -14
-26 -7 -43 27 -63 l28 -17 23 44 c23 43 23 45 6 72 -10 16 -41 51 -69 80 -47
47 -53 50 -71 37 -27 -20 -37 -17 -23 6 7 11 44 32 83 46 38 15 79 35 91 46
20 18 21 18 37 0 26 -29 95 -64 102 -52 3 5 14 10 23 10 14 0 13 -2 -2 -13
-17 -13 -15 -16 28 -41 56 -32 125 -58 137 -50 5 3 14 2 21 -2 6 -4 41 -9 77
-11 36 -2 92 -8 124 -14 44 -7 62 -7 73 2 11 9 14 8 14 -6 0 -15 7 -17 49 -12
27 3 66 13 86 21 29 13 36 20 32 36 -3 13 0 20 8 20 8 0 16 -12 18 -27 4 -27
4 -26 6 4 0 17 5 34 11 38 9 5 40 -44 40 -64 0 -5 4 -21 10 -35 l9 -25 58 20
c32 11 69 17 82 14 22 -6 22 -7 7 -24 -9 -10 -33 -23 -54 -29 -43 -13 -80 -37
-71 -47 8 -7 129 23 145 36 6 5 14 6 17 2 11 -11 7 11 -6 32 -7 11 -38 44 -69
73 l-56 53 -32 -16 c-40 -20 -50 -14 -15 9 22 14 24 20 14 32 -15 19 -4 30 15
15 12 -10 22 -6 53 23 32 30 35 37 23 46 -13 9 -13 10 0 11 8 1 18 1 22 0 14
-2 60 68 52 80 -4 7 -3 9 3 6 6 -4 16 0 23 8 10 12 9 15 -4 15 -10 0 -14 5
-11 10 3 6 14 10 25 10 12 0 23 14 34 40 10 26 22 40 33 40 11 0 14 -3 7 -8
-6 -4 -18 -21 -27 -39 l-17 -31 58 -10 c31 -5 60 -8 63 -6 4 2 10 20 13 39 4
19 12 35 18 35 6 0 7 -8 3 -17 -3 -10 -9 -30 -12 -44 -4 -22 -1 -27 21 -33 15
-4 24 -11 21 -16 -3 -6 -15 -6 -30 0 -22 8 -24 6 -30 -30 -10 -61 -29 -63 -20
-3 6 47 5 51 -17 57 -13 3 -41 6 -63 5 -37 0 -42 -4 -77 -57 l-38 -57 28 -6
c15 -4 57 -20 94 -37 l67 -31 10 31 c6 17 14 28 17 25 4 -3 2 -20 -4 -36 -10
-29 -9 -32 19 -46 16 -9 34 -13 39 -10 6 3 7 -1 4 -9 -8 -20 -8 -20 -45 0 -17
8 -32 14 -32 12 -30 -61 -50 -90 -85 -127 l-43 -45 21 -28 c33 -44 23 -55 -13
-13 -32 37 -34 37 -70 26 -89 -27 -104 -31 -120 -31 -21 0 -21 -1 -1 -65 l16
-51 77 26 c98 34 201 89 201 107 0 8 11 29 24 46 13 18 45 72 71 121 39 71 50
85 57 71 7 -12 4 -23 -12 -40 -12 -13 -20 -31 -17 -42 4 -17 5 -17 6 1 0 11
10 29 21 41 17 18 19 27 11 48 -5 14 -15 28 -20 32 -16 10 -13 51 5 66 12 10
14 23 10 50 -3 21 -2 48 3 62 16 41 -20 67 -90 67 -23 0 -71 5 -105 11 -59 10
-62 12 -61 37 2 24 -7 32 -86 72 -95 49 -111 65 -101 104 l6 25 33 -19 c18
-10 52 -21 76 -25 39 -5 51 -2 102 29 50 30 64 35 100 30 52 -7 123 10 131 33
9 23 2 27 -56 33 l-52 5 42 29 c23 16 40 31 37 34 -3 3 -16 -5 -30 -18 -38
-35 -138 -37 -219 -4 -33 13 -76 24 -97 24 -21 0 -47 8 -59 18 -21 17 -21 19
-5 35 12 12 34 17 81 17 35 0 73 5 83 11 17 11 17 15 -12 69 -31 61 -47 143
-29 154 11 7 18 -2 83 -102 23 -35 43 -61 45 -60 2 2 -3 22 -11 43 -22 63 -17
145 10 145 15 0 32 -39 41 -95 3 -22 16 -54 27 -71 l21 -32 26 42 c28 44 68
76 96 76 14 0 16 -7 11 -42 -4 -32 -3 -38 4 -25 15 27 7 71 -14 75 -10 2 -32
-7 -50 -21 l-32 -24 -37 24 c-21 13 -46 40 -56 61 -13 29 -23 37 -43 37 -33 0
-151 91 -147 113 3 14 122 109 139 111 4 1 10 -27 14 -61 6 -61 7 -62 23 -41
9 11 35 54 57 95 l40 73 5 -45 c3 -25 2 -76 -1 -115 -4 -38 -6 -71 -5 -72 3
-4 57 37 165 124 56 46 103 83 105 83 2 0 1 -20 -2 -45 -2 -26 0 -45 5 -45 6
0 41 26 79 58 38 31 96 78 130 104 81 62 204 194 234 252 25 46 40 58 40 32 0
-8 4 -17 9 -20 4 -3 9 17 10 44 0 28 12 76 26 110 14 34 32 84 39 113 15 57
14 58 35 -48 5 -28 19 -70 30 -95 l20 -45 0 45 c1 65 33 310 41 310 4 0 12
-37 18 -82 39 -274 47 -656 18 -813 -16 -86 -86 -361 -101 -397 -20 -49 42 17
139 147 14 19 15 18 6 -12 -5 -18 -5 -33 0 -33 11 0 97 102 139 163 38 56 119
226 168 352 42 109 93 314 93 372 0 43 13 58 23 26 3 -10 26 -88 51 -173 l47
-155 -5 205 c-5 187 -21 321 -51 434 -6 21 -6 21 11 1 40 -48 126 -290 169
-477 13 -57 24 -101 25 -98 15 49 -1 395 -25 554 -21 136 -76 350 -140 541
-64 192 -88 252 -166 408 -33 65 -59 120 -57 122 2 1 91 -11 198 -26 107 -16
203 -26 213 -23 24 8 21 38 -12 119 -45 110 -129 294 -145 317 -26 36 -7 -60
24 -122 37 -75 120 -267 120 -278 0 -9 -33 -6 -275 29 l-150 21 -39 65 c-22
35 -59 89 -85 120 -39 48 -43 56 -29 64 27 15 48 39 48 54 0 8 8 19 18 24 40
24 -10 9 -64 -19 -39 -20 -68 -28 -84 -25 -27 6 -172 -36 -277 -79 -35 -14
-68 -26 -75 -26 -7 0 -26 21 -43 48 -16 26 -51 70 -76 98 -38 42 -50 65 -67
130 -26 97 -42 199 -42 281 0 51 -4 64 -20 76 -17 12 -18 16 -6 20 9 4 16 -1
19 -11 2 -9 4 8 4 38 1 39 -2 49 -7 34 -5 -14 -52 -44 -127 -84 -65 -35 -149
-81 -187 -102 l-68 -40 -57 16 c-31 8 -97 22 -148 30 -98 16 -153 38 -153 61
0 35 -57 190 -108 295 -50 104 -64 124 -151 210 -78 78 -112 104 -183 140 -79
39 -96 44 -170 47 -46 1 -95 -1 -109 -6z m287 -226 c99 -52 194 -134 264 -227
56 -75 130 -204 130 -227 0 -5 -17 -3 -37 5 -21 7 -55 13 -76 14 l-38 0 -44
95 c-25 53 -60 118 -78 144 -45 68 -116 143 -128 136 -5 -4 -8 -1 -7 6 2 7
-21 29 -51 51 -48 34 -52 38 -28 38 14 0 56 -16 93 -35z m-260 -76 c102 -18
253 -113 339 -213 38 -44 95 -128 95 -141 0 -1 -46 -5 -102 -8 -131 -9 -319
-47 -428 -87 -121 -45 -120 -45 -120 -24 0 52 25 228 42 294 20 77 61 169 81
182 16 10 23 10 93 -3z m1296 -506 c2 -60 3 -109 2 -110 0 -1 -48 22 -107 52
-103 53 -106 55 -84 69 35 23 171 96 179 96 4 0 8 -48 10 -107z m-1655 -45
c-3 -7 -5 -2 -5 12 0 14 2 19 5 13 2 -7 2 -19 0 -25z m1021 -70 c7 -7 12 -26
12 -43 0 -38 -16 -55 -51 -55 -34 0 -59 24 -59 55 0 13 7 31 16 39 18 19 65
21 82 4z m-1070 -477 c76 -65 174 -130 242 -161 30 -13 56 -25 58 -26 6 -3
-32 -74 -41 -74 -4 0 -15 7 -23 15 -21 21 -40 19 -23 -1 12 -15 11 -16 -6 -11
-11 3 -75 20 -143 37 -67 16 -142 39 -167 51 l-44 21 15 41 c18 52 66 157 72
157 2 0 29 -22 60 -49z m598 -144 c-13 -29 -41 -109 -61 -177 -20 -69 -39
-129 -42 -133 -4 -7 -38 15 -108 71 -27 21 -27 24 -14 50 15 29 226 242 240
242 4 0 -3 -24 -15 -53z m697 -143 c14 -71 28 -150 32 -177 l6 -48 -73 -33
c-40 -18 -82 -43 -92 -55 -26 -29 -14 -26 79 18 92 45 93 44 94 -51 1 -40 -3
-58 -11 -58 -9 0 -10 -3 -2 -8 6 -4 13 -23 17 -43 l5 -36 -51 -6 c-83 -9 -131
-34 -168 -86 -31 -42 -32 -45 -9 -30 62 40 230 68 230 39 0 -5 -17 -10 -38
-10 -113 0 -200 -112 -218 -281 -8 -66 1 -139 20 -164 12 -17 13 -16 12 5 -1
16 10 31 32 47 28 18 42 21 80 16 55 -7 79 -25 99 -72 14 -32 13 -36 -3 -48
-10 -7 -13 -13 -8 -13 20 0 74 66 101 125 24 53 28 72 28 160 0 110 -12 146
-68 198 -16 15 -27 30 -24 33 13 13 76 -39 111 -89 55 -80 69 -129 70 -236 l0
-94 21 46 c17 40 22 44 38 35 18 -9 18 -8 4 14 -8 12 -18 49 -22 81 -6 57 -6
58 14 48 33 -18 34 -13 1 22 -17 17 -44 57 -61 88 -37 68 -100 136 -134 145
-37 9 -33 62 5 77 12 4 12 6 -2 6 -10 1 -15 8 -13 19 2 9 11 60 20 113 16 94
17 96 51 112 41 20 44 20 44 7 0 -6 23 -63 50 -128 28 -64 48 -122 46 -129 -3
-7 -1 -13 5 -13 10 0 10 0 76 -170 69 -180 70 -187 26 -260 -42 -72 -44 -81
-47 -265 l-2 -139 -54 -29 -55 -29 -6 34 c-5 28 -7 29 -9 8 -1 -14 -1 -31 0
-39 1 -11 -4 -11 -25 3 -15 10 -29 16 -31 13 -2 -2 7 -10 21 -17 32 -17 32
-45 0 -92 -55 -81 -274 -173 -575 -242 -58 -14 -96 -25 -85 -26 24 -1 59 -45
52 -64 -5 -13 -186 -173 -215 -190 -9 -5 -19 -1 -28 13 -9 12 -19 19 -24 16
-5 -3 -12 0 -16 6 -4 8 -3 9 4 5 17 -10 15 4 -2 23 -8 9 -21 35 -29 59 -13 38
-13 43 2 52 9 5 12 9 6 9 -5 0 -21 -6 -35 -14 -27 -15 -61 -20 -59 -7 5 27 -5
30 -10 3 -4 -26 -17 -43 -51 -67 -25 -18 -48 -33 -51 -33 -9 -1 2 141 12 161
5 10 23 25 39 33 33 17 35 15 43 -35 3 -18 5 -15 6 11 l1 36 -77 28 c-68 23
-296 129 -331 153 -21 14 81 258 125 299 l35 32 -22 30 c-11 17 -48 54 -80 82
-33 28 -58 55 -55 59 2 4 -2 7 -9 7 -26 0 -125 78 -136 107 -5 16 -10 59 -10
96 0 65 1 69 35 99 23 20 46 31 66 31 19 0 28 4 23 11 -12 20 -3 263 12 339
20 93 29 110 102 190 l60 65 -40 -117 -40 -118 -37 -2 -36 -1 33 -4 c17 -2 32
-8 32 -13 0 -5 -11 -44 -25 -87 -13 -42 -23 -78 -22 -79 1 -2 23 36 48 84 25
48 52 86 58 84 7 -1 10 2 6 8 -3 5 26 57 66 115 80 119 66 117 158 29 l55 -52
-22 -98 c-23 -110 -35 -184 -28 -184 3 0 17 23 32 50 30 55 36 59 50 32 7 -14
16 -16 44 -11 l35 6 -37 2 c-21 0 -38 6 -38 11 0 6 32 9 78 9 60 -1 69 -3 42
-9 l-35 -7 35 -2 c35 -1 36 -2 49 -58 18 -82 121 -293 142 -293 12 0 149 218
190 303 13 26 30 47 38 48 9 0 11 3 4 5 -7 3 5 39 36 102 86 175 139 345 142
452 l1 45 13 -31 c8 -17 25 -89 38 -160z m-875 29 c-19 -20 -28 -22 -72 -17
-46 6 -90 24 -58 24 7 0 11 3 10 8 -1 4 1 17 5 28 l8 22 64 -21 65 -21 -22
-23z m1588 -69 c4 -46 4 -84 0 -84 -4 0 -22 6 -40 14 -19 8 -76 19 -127 25
-156 19 -156 14 3 94 165 83 154 86 164 -49z m-532 -39 c9 -30 19 -61 22 -68
3 -10 -5 -18 -25 -25 -27 -10 -31 -9 -31 7 0 29 13 141 16 141 1 0 10 -25 18
-55z m-818 -240 l10 -65 -78 0 c-43 0 -78 2 -78 5 0 2 14 20 31 40 23 26 37
34 51 29 15 -4 19 -2 15 7 -4 14 19 49 33 49 4 0 11 -29 16 -65z m2173 1 c16
-20 17 -72 1 -91 -16 -20 -59 -19 -82 2 -20 18 -24 73 -6 91 17 17 73 15 87
-2z m-1585 -342 c10 -4 16 -18 16 -41 0 -65 -85 -120 -120 -78 -25 30 36 122
82 125 3 0 13 -3 22 -6z m28 -119 c0 -5 -5 -11 -11 -13 -6 -2 -11 4 -11 13 0
9 5 15 11 13 6 -2 11 -8 11 -13z m-905 -923 c-27 -28 -27 -29 -13 -76 13 -43
13 -48 -2 -53 -27 -10 -31 -25 -16 -56 9 -15 13 -34 11 -40 -2 -7 -14 8 -26
32 l-23 44 26 21 27 21 -18 44 -17 44 28 23 c38 33 56 30 23 -4z m585 -99 c-2
-43 -9 -83 -16 -89 -6 -6 -39 -21 -73 -34 -68 -24 -71 -31 -48 -87 21 -50 19
-57 -18 -71 -49 -18 -56 -15 -19 8 l32 20 -16 37 c-33 76 -33 76 48 112 40 18
79 40 86 49 6 9 12 44 12 80 0 35 4 61 9 58 4 -3 6 -40 3 -83z m-378 -19 c9
-24 8 -25 -13 -12 -11 7 -17 16 -15 20 8 13 21 9 28 -8z m-60 -146 c12 -45 7
-98 -10 -105 -19 -7 -36 16 -28 37 3 8 8 32 11 53 6 42 18 48 27 15z m-774
-23 c0 -20 44 -202 50 -210 5 -6 49 -31 99 -55 50 -25 90 -48 91 -52 0 -4 -43
-33 -96 -64 -52 -31 -97 -61 -99 -67 -2 -7 -12 -58 -22 -114 l-18 -103 -70 68
c-104 100 -89 94 -191 77 -49 -8 -102 -18 -117 -21 l-28 -6 24 49 c14 26 37
76 51 110 l26 63 -50 100 c-27 55 -50 102 -50 105 0 2 12 0 26 -5 14 -6 66
-10 116 -10 l90 0 76 70 c70 64 92 79 92 65z m725 -165 c7 -23 18 -25 46 -10
27 15 24 -5 -5 -23 -22 -15 -24 -14 -45 13 -23 32 -26 40 -12 40 5 0 13 -9 16
-20z m25 -151 c0 -11 -4 -17 -10 -14 -5 3 -10 13 -10 21 0 8 5 14 10 14 6 0
10 -9 10 -21z m0 -199 c0 -5 -4 -10 -10 -10 -5 0 -10 5 -10 10 0 6 5 10 10 10
6 0 10 -4 10 -10z m-182 -186 c-2 -15 -22 -23 -93 -36 -95 -19 -108 -16 -103
27 3 17 15 21 93 31 95 11 109 8 103 -22z m172 -10 c0 -8 -5 -12 -10 -9 -6 4
-8 11 -5 16 9 14 15 11 15 -7z m414 -25 c27 -5 50 -9 52 -9 7 0 4 -18 -5 -43
l-10 -25 -93 19 c-129 27 -128 26 -128 58 0 15 3 30 6 33 3 3 33 -1 67 -9 34
-8 84 -18 111 -24z m523 -40 c0 -50 -4 -72 -13 -76 -8 -3 -14 -16 -14 -29 0
-13 -4 -24 -10 -24 -5 0 -10 16 -10 36 0 40 31 164 41 164 3 0 6 -32 6 -71z
m-1356 -102 c-10 -9 -11 -8 -5 6 3 10 9 15 12 12 3 -3 0 -11 -7 -18z"/>
<path d="M2068 3883 c7 -3 16 -2 19 1 4 3 -2 6 -13 5 -11 0 -14 -3 -6 -6z"/>
<path d="M2108 3873 c7 -3 16 -2 19 1 4 3 -2 6 -13 5 -11 0 -14 -3 -6 -6z"/>
<path d="M2908 3823 c12 -2 32 -2 45 0 12 2 2 4 -23 4 -25 0 -35 -2 -22 -4z"/>
<path d="M3003 3813 c9 -2 23 -2 30 0 6 3 -1 5 -18 5 -16 0 -22 -2 -12 -5z"/>
<path d="M2878 3793 c12 -2 32 -2 45 0 12 2 2 4 -23 4 -25 0 -35 -2 -22 -4z"/>
<path d="M3318 3773 c7 -3 16 -2 19 1 4 3 -2 6 -13 5 -11 0 -14 -3 -6 -6z"/>
<path d="M2151 3754 c0 -11 3 -14 6 -6 3 7 2 16 -1 19 -3 4 -6 -2 -5 -13z"/>
<path d="M3023 3763 c9 -2 25 -2 35 0 9 3 1 5 -18 5 -19 0 -27 -2 -17 -5z"/>
<path d="M3198 3763 c7 -3 16 -2 19 1 4 3 -2 6 -13 5 -11 0 -14 -3 -6 -6z"/>
<path d="M2261 3744 c0 -11 3 -14 6 -6 3 7 2 16 -1 19 -3 4 -6 -2 -5 -13z"/>
<path d="M3238 3753 c7 -3 16 -2 19 1 4 3 -2 6 -13 5 -11 0 -14 -3 -6 -6z"/>
<path d="M3278 3743 c7 -3 16 -2 19 1 4 3 -2 6 -13 5 -11 0 -14 -3 -6 -6z"/>
<path d="M2914 3724 c-18 -14 -18 -14 6 -3 31 14 36 19 24 19 -6 0 -19 -7 -30
-16z"/>
<path d="M2251 3704 c0 -11 3 -14 6 -6 3 7 2 16 -1 19 -3 4 -6 -2 -5 -13z"/>
<path d="M2241 3664 c0 -11 3 -14 6 -6 3 7 2 16 -1 19 -3 4 -6 -2 -5 -13z"/>
<path d="M2231 3594 c0 -11 3 -14 6 -6 3 7 2 16 -1 19 -3 4 -6 -2 -5 -13z"/>
<path d="M1995 3590 c-3 -6 1 -7 9 -4 18 7 21 14 7 14 -6 0 -13 -4 -16 -10z"/>
<path d="M2055 3537 c-16 -18 -43 -42 -60 -55 -16 -13 -8 -8 19 10 27 18 55
43 64 56 20 30 13 27 -23 -11z"/>
<path d="M2221 3554 c0 -11 3 -14 6 -6 3 7 2 16 -1 19 -3 4 -6 -2 -5 -13z"/>
<path d="M2206 3494 c-4 -20 -5 -38 -3 -40 3 -3 8 11 11 32 4 20 5 38 3 40 -3
3 -8 -11 -11 -32z"/>
<path d="M1761 3485 c0 -12 -7 -27 -13 -34 -11 -10 -10 -11 5 -6 10 4 17 2 17
-4 0 -6 10 -11 23 -10 21 0 21 1 2 8 -11 4 -23 21 -26 37 -5 20 -7 22 -8 9z"/>
<path d="M2145 3474 c0 -13 3 -24 8 -24 4 0 7 9 7 19 0 11 -3 22 -7 24 -5 3
-8 -6 -8 -19z"/>
<path d="M1691 3479 c-1 -19 26 -45 36 -35 3 3 1 6 -6 6 -6 0 -16 10 -21 23
-6 15 -9 17 -9 6z"/>
<path d="M2045 3475 c-25 -12 -26 -14 -5 -9 28 7 60 23 45 23 -5 0 -23 -6 -40
-14z"/>
<path d="M1938 3433 c7 -3 16 -2 19 1 4 3 -2 6 -13 5 -11 0 -14 -3 -6 -6z"/>
<path d="M2100 3419 c-22 -18 -22 -19 -3 -10 12 6 25 16 28 21 9 15 3 12 -25
-11z"/>
<path d="M2182 3380 c0 -14 2 -19 5 -12 2 6 2 18 0 25 -3 6 -5 1 -5 -13z"/>
<path d="M2010 3365 c-45 -33 -30 -32 18 0 20 14 32 25 27 25 -6 -1 -26 -12
-45 -25z"/>
<path d="M1960 3326 c0 -3 9 -10 20 -16 11 -6 20 -8 20 -6 0 3 -9 10 -20 16
-11 6 -20 8 -20 6z"/>
<path d="M2154 3265 c-3 -20 -13 -43 -21 -50 -13 -13 -12 -15 6 -15 14 0 19 5
15 15 -4 10 0 15 12 15 14 0 16 2 6 9 -9 5 -11 17 -6 34 3 15 4 27 1 27 -4 0
-9 -16 -13 -35z"/>
<path d="M2044 3235 c6 -19 14 -35 18 -35 8 0 -11 58 -21 65 -4 2 -3 -11 3
-30z"/>
<path d="M1880 3239 c-14 -11 -19 -18 -12 -14 57 30 65 35 52 35 -8 0 -26 -10
-40 -21z"/>
<path d="M1957 3229 c12 -12 25 -20 28 -17 3 3 -7 13 -22 23 l-28 17 22 -23z"/>
<path d="M2293 3243 c26 -2 67 -2 90 0 23 2 2 3 -48 3 -49 0 -68 -1 -42 -3z"/>
<path d="M2458 3233 c6 -2 18 -2 25 0 6 3 1 5 -13 5 -14 0 -19 -2 -12 -5z"/>
<path d="M3392 3201 c-12 -21 -22 -43 -22 -47 0 -5 12 11 25 35 14 24 24 45
22 47 -2 2 -13 -14 -25 -35z"/>
<path d="M2183 3213 c9 -2 25 -2 35 0 9 3 1 5 -18 5 -19 0 -27 -2 -17 -5z"/>
<path d="M2438 3213 c7 -3 16 -2 19 1 4 3 -2 6 -13 5 -11 0 -14 -3 -6 -6z"/>
<path d="M2569 3205 c18 -8 36 -15 40 -15 13 1 -45 29 -59 29 -8 0 0 -6 19
-14z"/>
<path d="M2520 3190 c8 -5 20 -10 25 -10 6 0 3 5 -5 10 -8 5 -19 10 -25 10 -5
0 -3 -5 5 -10z"/>
<path d="M2650 3140 c19 -11 40 -19 45 -19 6 0 -6 8 -25 19 -19 11 -39 19 -45
19 -5 0 6 -8 25 -19z"/>
<path d="M2884 3151 c7 -11 46 -35 46 -28 0 3 -12 12 -26 22 -15 9 -23 12 -20
6z"/>
<path d="M2750 3130 c8 -5 20 -10 25 -10 6 0 3 5 -5 10 -8 5 -19 10 -25 10 -5
0 -3 -5 5 -10z"/>
<path d="M3341 3089 c-11 -28 -21 -57 -21 -63 1 -6 12 16 25 48 14 33 23 61
21 63 -2 2 -13 -20 -25 -48z"/>
<path d="M2948 3113 c6 -2 18 -2 25 0 6 3 1 5 -13 5 -14 0 -19 -2 -12 -5z"/>
<path d="M2780 3085 c14 -8 30 -14 35 -14 6 0 -1 6 -15 14 -14 8 -29 14 -35
14 -5 0 1 -6 15 -14z"/>
<path d="M2860 3085 c14 -8 30 -14 35 -14 6 0 -1 6 -15 14 -14 8 -29 14 -35
14 -5 0 1 -6 15 -14z"/>
<path d="M3064 2995 c71 -36 131 -64 133 -62 4 5 -242 127 -254 127 -4 -1 50
-30 121 -65z"/>
<path d="M2930 3020 c19 -11 42 -19 50 -19 8 0 -5 8 -29 19 -55 25 -67 25 -21
0z"/>
<path d="M3311 2994 c0 -11 3 -14 6 -6 3 7 2 16 -1 19 -3 4 -6 -2 -5 -13z"/>
<path d="M3002 2995 c10 -10 218 -104 218 -98 0 2 -39 23 -87 45 -100 46 -141
62 -131 53z"/>
<path d="M3301 2954 c0 -11 3 -14 6 -6 3 7 2 16 -1 19 -3 4 -6 -2 -5 -13z"/>
<path d="M2378 2923 c-28 -30 -58 -84 -58 -104 0 -7 12 12 28 42 29 57 67 85
102 74 47 -15 72 -133 50 -238 -10 -48 -16 -60 -42 -73 -16 -8 -27 -18 -24
-22 13 -12 61 37 73 74 15 51 16 152 2 195 -27 79 -84 102 -131 52z"/>
<path d="M3210 2926 c0 -3 9 -10 20 -16 11 -6 20 -8 20 -6 0 3 -9 10 -20 16
-11 6 -20 8 -20 6z"/>
<path d="M2306 2750 c-10 -73 13 -140 48 -140 6 0 0 9 -14 20 -23 17 -25 25
-23 94 0 42 0 76 -2 76 -1 0 -5 -22 -9 -50z"/>
<path d="M2265 2510 c19 -8 83 -14 74 -6 -2 2 -24 6 -49 9 -30 4 -38 3 -25 -3z"/>
<path d="M2456 2503 c-3 -4 -28 -6 -54 -6 -47 1 -47 1 -8 -6 l39 -6 -38 -18
c-20 -10 -35 -20 -33 -23 3 -2 26 8 52 22 26 14 70 30 99 34 l52 8 -51 1 c-28
0 -54 -2 -58 -6z"/>
<path d="M3715 5379 c51 -10 92 -10 50 1 -16 4 -43 8 -60 8 -25 0 -24 -2 10
-9z"/>
<path d="M3850 5350 c30 -12 63 -23 72 -27 10 -3 15 -9 12 -14 -3 -5 -10 -7
-15 -4 -18 12 -30 -6 -14 -21 13 -13 18 -13 42 0 16 8 24 15 20 16 -5 0 -17
-5 -27 -10 -10 -6 -21 -6 -24 -2 -6 11 -2 11 109 21 l90 8 -80 1 c-54 2 -94 9
-123 22 -23 10 -59 22 -80 25 -32 5 -29 3 18 -15z"/>
<path d="M4128 5303 c6 -2 18 -2 25 0 6 3 1 5 -13 5 -14 0 -19 -2 -12 -5z"/>
<path d="M4236 5276 c36 -16 44 -27 55 -70 l7 -31 1 28 c1 33 -47 87 -76 87
-11 -1 -7 -6 13 -14z"/>
<path d="M4267 5125 c-9 -19 -41 -75 -70 -123 -29 -48 -61 -100 -71 -117 l-18
-30 21 25 c11 14 50 76 87 137 36 62 70 110 76 107 22 -14 98 -128 94 -141 -3
-7 0 -12 6 -10 17 3 19 -50 2 -57 -8 -3 -14 -13 -14 -23 0 -15 3 -14 16 5 8
12 22 22 30 22 8 0 14 3 14 8 0 11 -67 111 -108 161 -21 25 -39 51 -42 58 -4
9 -12 1 -23 -22z"/>
<path d="M4041 4768 c-34 -46 -47 -67 -29 -47 36 40 102 129 95 129 -2 0 -32
-37 -66 -82z"/>
<path d="M4331 4804 c0 -11 3 -14 6 -6 3 7 2 16 -1 19 -3 4 -6 -2 -5 -13z"/>
<path d="M726 4669 c-3 -8 -10 -39 -16 -70 -10 -53 -14 -59 -60 -87 -45 -28
-67 -62 -39 -62 6 0 32 -9 58 -21 46 -19 49 -23 60 -74 18 -82 31 -85 83 -24
l43 51 68 -6 c37 -3 67 -3 67 0 0 4 -14 31 -31 61 l-32 55 18 59 c12 37 15 63
9 69 -6 6 -30 4 -63 -5 -60 -16 -58 -16 -118 33 -31 25 -44 30 -47 21z m81
-75 c20 -14 30 -14 73 -4 28 7 53 11 55 9 2 -2 -3 -22 -11 -44 -19 -54 -17
-75 6 -110 11 -16 20 -33 20 -37 0 -5 -24 -8 -52 -8 -51 0 -55 -2 -94 -47
l-41 -47 -14 59 c-15 59 -16 60 -67 80 -29 11 -52 22 -52 25 0 3 20 18 44 33
40 25 46 34 56 83 11 54 12 55 33 40 12 -9 32 -23 44 -32z"/>
<path d="M3167 2062 l-27 -29 33 -17 c18 -10 42 -16 52 -13 16 4 14 5 -7 6
-25 1 -26 3 -21 41 3 22 4 40 1 40 -2 0 -16 -13 -31 -28z"/>
<path d="M3319 1991 c20 -13 -1 -38 -43 -50 -24 -7 -26 -9 -9 -10 27 -1 79 42
69 57 -4 7 -13 12 -19 12 -8 0 -7 -4 2 -9z"/>
<path d="M4067 1932 c-10 -10 -17 -21 -17 -24 0 -3 -25 -50 -56 -104 -31 -55
-88 -160 -126 -234 -39 -74 -73 -138 -77 -142 -3 -4 -136 -33 -294 -64 -191
-38 -291 -62 -294 -71 -7 -18 56 -93 235 -280 81 -85 150 -160 153 -166 6 -10
-31 -326 -59 -517 -13 -85 -3 -98 53 -71 55 26 238 113 374 178 79 37 120 51
135 47 20 -7 52 -21 281 -128 50 -24 123 -57 163 -76 39 -18 72 -37 72 -41 0
-5 9 -9 20 -9 11 0 20 6 20 13 0 17 -47 389 -63 497 -8 48 -11 94 -8 103 5 12
272 305 384 419 25 26 21 46 -10 52 -60 12 -412 76 -480 86 -39 6 -78 17 -86
23 -8 7 -64 109 -124 227 -114 225 -158 300 -172 300 -4 0 -15 -8 -24 -18z
m65 -94 c20 -35 79 -150 132 -255 75 -151 101 -194 118 -198 13 -3 91 -17 173
-31 332 -56 379 -64 383 -69 2 -2 -45 -55 -105 -117 -60 -62 -148 -155 -196
-206 -87 -93 -87 -93 -86 -145 0 -29 15 -160 33 -292 18 -132 32 -241 31 -243
-1 -1 -51 21 -111 49 -276 130 -409 189 -426 189 -10 0 -131 -54 -269 -120
l-252 -120 7 43 c3 23 17 134 31 247 13 113 27 221 30 241 8 44 0 54 -171 229
-154 157 -217 233 -201 241 7 3 64 16 127 28 63 12 142 28 175 36 33 7 96 19
140 25 44 7 90 18 101 26 12 7 49 65 83 130 98 185 204 374 211 374 3 0 22
-28 42 -62z"/>
<path d="M3178 1933 c6 -2 18 -2 25 0 6 3 1 5 -13 5 -14 0 -19 -2 -12 -5z"/>
<path d="M2783 1277 l-42 -42 54 -53 c30 -30 58 -51 64 -47 6 3 9 0 6 -7 -2
-7 2 -21 9 -31 13 -17 15 -17 49 0 34 17 64 57 86 115 9 24 7 28 -27 49 -38
22 -101 48 -138 55 -14 2 -33 -9 -61 -39z"/>
<path d="M1761 1290 c-13 -11 -29 -20 -36 -20 -7 0 -18 -7 -25 -15 -7 -8 -16
-12 -21 -9 -23 14 -5 -21 34 -63 23 -26 51 -58 62 -70 l21 -23 47 70 c26 38
47 72 47 74 0 4 -98 76 -103 76 -1 -1 -13 -10 -26 -20z"/>
<path d="M1889 1195 c-30 -34 -82 -115 -77 -120 21 -18 207 -89 214 -82 4 4
64 148 64 153 0 2 -8 4 -17 4 -10 0 -50 17 -88 38 l-70 37 -26 -30z"/>
<path d="M1552 1169 c2 -7 -23 -22 -56 -33 -52 -19 -86 -46 -86 -68 0 -4 14
-20 30 -35 17 -14 30 -34 30 -43 0 -9 8 -24 19 -34 11 -10 16 -25 14 -40 -4
-18 2 -29 19 -40 14 -9 30 -27 36 -41 8 -18 19 -25 40 -25 22 0 35 -9 54 -35
35 -50 36 -149 3 -320 -14 -72 -25 -142 -25 -156 0 -14 -7 -34 -15 -45 -8 -10
-15 -30 -15 -45 0 -34 71 -142 104 -157 60 -27 92 -7 76 49 -12 41 -13 116 -2
123 4 2 20 -11 35 -29 32 -41 89 -57 114 -33 13 13 13 26 2 91 -15 91 -5 126
75 244 97 145 129 182 146 173 10 -6 24 -2 40 11 29 21 45 23 87 9 26 -10 33
-21 58 -98 16 -48 47 -134 70 -192 57 -142 76 -229 73 -320 l-3 -75 31 -3 c24
-2 39 5 72 37 23 23 42 48 42 56 0 8 8 15 17 15 9 0 36 9 60 21 55 27 83 78
81 146 0 26 9 95 21 152 14 64 24 160 28 252 6 140 7 148 27 151 13 2 22 12
24 25 5 37 67 91 109 95 22 2 38 9 41 18 4 12 2 13 -9 3 -7 -7 -25 -13 -39
-13 -14 0 -41 -11 -60 -25 -19 -14 -48 -25 -65 -25 -40 0 -58 -17 -44 -42 6
-10 9 -31 7 -46 -3 -25 -6 -26 -45 -24 -68 5 -214 -26 -250 -54 -17 -13 -34
-24 -36 -24 -2 0 -10 20 -17 44 -12 42 -15 45 -62 56 -46 11 -51 11 -73 -10
l-24 -22 -35 22 c-20 12 -40 18 -46 15 -6 -4 -22 0 -35 9 -13 9 -34 16 -46 16
-13 0 -38 6 -57 12 -31 12 -35 11 -51 -10 -15 -21 -19 -22 -46 -10 -17 7 -51
26 -78 42 -42 25 -51 27 -79 17 -28 -10 -35 -9 -46 6 -7 10 -27 23 -45 29 -18
6 -38 22 -45 37 -7 15 -19 27 -27 27 -16 0 -28 31 -20 53 4 8 -2 21 -13 28
-10 8 -22 26 -26 41 -6 27 -69 73 -64 47z m362 -294 c21 -14 53 -32 73 -40 34
-14 38 -14 58 5 21 19 26 20 64 8 38 -12 41 -16 36 -38 -10 -38 -22 -41 -121
-37 -73 3 -100 9 -135 28 -54 30 -77 68 -52 87 24 17 35 15 77 -13z"/>
<path d="M3124 1139 c-19 -22 -19 -22 4 -8 12 8 22 17 22 21 0 12 -6 9 -26
-13z"/>
<path d="M2092 1101 c-10 -20 -32 -75 -47 -123 -27 -84 -50 -120 -38 -60 3 15
6 33 7 40 0 8 -21 22 -49 33 -75 29 -167 60 -169 57 -38 -54 -46 -67 -46 -71
0 -6 156 -72 207 -87 32 -10 52 -10 87 -1 81 20 146 14 215 -20 46 -23 65 -28
75 -20 9 8 34 6 91 -9 99 -25 161 -25 226 0 29 10 56 17 61 14 16 -10 8 -24
-15 -24 -13 0 -32 -6 -42 -14 -13 -9 -38 -13 -75 -10 l-55 3 54 -9 c40 -6 60
-5 75 5 12 7 38 16 59 19 20 4 37 11 37 17 0 6 -4 8 -9 5 -16 -10 -47 39 -71
112 -21 65 -26 73 -44 67 -12 -3 -41 -9 -65 -12 -60 -8 -51 16 15 40 27 10 50
20 52 22 2 1 -1 18 -7 36 -5 19 -10 27 -10 19 -1 -13 -3 -13 -10 -1 -7 12 -15
12 -33 4 -13 -5 -53 -16 -90 -23 l-67 -13 -3 -73 -3 -73 55 -7 c36 -5 80 -2
128 8 39 8 72 11 72 7 0 -15 -77 -29 -169 -31 l-91 -2 0 -33 c0 -18 -4 -33
-10 -33 -5 0 -10 16 -10 35 0 24 -5 35 -15 35 -8 0 -15 5 -15 10 0 6 8 10 19
10 14 0 20 10 24 44 4 23 4 59 0 78 -5 35 -6 36 -82 52 -42 9 -104 16 -138 15
-61 -2 -63 -2 -81 -38z m211 -126 c61 -30 42 -34 -40 -9 -62 19 -90 23 -135
18 -44 -5 -58 -3 -58 6 0 20 185 8 233 -15z"/>
<path d="M3097 1090 c-3 -12 -15 -24 -26 -27 -12 -3 -21 -13 -21 -23 0 -10 -5
-20 -11 -22 -7 -2 -10 -10 -7 -18 3 -9 10 -2 19 18 8 18 22 35 31 38 17 5 34
41 25 50 -2 3 -7 -5 -10 -16z"/>
<path d="M403 887 c-50 -40 -120 -95 -155 -123 l-64 -51 -79 23 c-83 25 -116
30 -99 15 12 -12 147 -51 174 -51 12 0 56 28 99 63 42 35 107 87 146 116 l70
52 6 -28 c4 -15 12 -95 19 -178 14 -166 19 -188 51 -206 l22 -11 -20 33 c-16
26 -23 66 -32 174 -17 211 -22 245 -35 245 -6 -1 -52 -33 -103 -73z"/>
<path d="M2483 793 c9 -2 23 -2 30 0 6 3 -1 5 -18 5 -16 0 -22 -2 -12 -5z"/>
<path d="M680 447 c0 -3 38 -31 85 -61 47 -31 85 -58 85 -61 0 -2 -17 -12 -37
-20 -62 -26 -111 -47 -217 -95 l-101 -46 -22 -82 c-14 -56 -18 -82 -10 -79 7
2 13 12 15 23 2 10 10 43 18 72 14 48 19 55 57 72 249 107 327 144 327 154 -1
22 -200 145 -200 123z"/>
<path d="M20 80 c-19 -6 -10 -8 35 -9 54 -1 62 -4 97 -38 21 -20 41 -33 45
-29 4 4 -12 25 -35 46 -44 42 -81 50 -142 30z"/>
</g>
</svg>
