<?xml version="1.0" encoding="utf-8"?>
<!-- Generator: Adobe Illustrator 22.0.0, SVG Export Plug-In . SVG Version: 6.00 Build 0)  -->
<svg version="1.1" id="图层_1" xmlns="http://www.w3.org/2000/svg" xmlns:xlink="http://www.w3.org/1999/xlink" x="0px" y="0px"
	 viewBox="0 0 200 200" style="enable-background:new 0 0 200 200;" xml:space="preserve">
<style type="text/css">
	.st0{fill:#EAEAEA;}
</style>
<path class="st0" d="M12.5,12.5h175c5.4,0,9.7,4.4,9.7,9.7v0v155.6c0,5.4-4.4,9.7-9.7,9.7c0,0,0,0,0,0h-175c-5.4,0-9.7-4.4-9.7-9.7
	l0,0V22.2C2.8,16.9,7.1,12.5,12.5,12.5L12.5,12.5z M177.8,53.7l-77.1,69L22.2,53.5v114.6h155.6L177.8,53.7L177.8,53.7z M27.2,31.9
	l73.4,64.8l72.3-64.8H27.2z"/>
</svg>
