<?xml version="1.0" encoding="iso-8859-1"?>
<!-- Generator: Adobe Illustrator 22.0.0, SVG Export Plug-In . SVG Version: 6.00 Build 0)  -->
<svg version="1.1"
	 id="svg8" inkscape:export-filename="C:\Users\sewer\&#x6D63;&#x5D85;&#x6D58;.png" inkscape:export-xdpi="178.7608" inkscape:export-ydpi="178.7608" inkscape:version="0.92.3 (2405546, 2018-03-11)" sodipodi:docname="&#x7F01;&#x6A3A;&#x6D58;.svg" xmlns:cc="http://creativecommons.org/ns#" xmlns:dc="http://purl.org/dc/elements/1.1/" xmlns:inkscape="http://www.inkscape.org/namespaces/inkscape" xmlns:rdf="http://www.w3.org/1999/02/22-rdf-syntax-ns#" xmlns:sodipodi="http://sodipodi.sourceforge.net/DTD/sodipodi-0.dtd" xmlns:svg="http://www.w3.org/2000/svg"
	 xmlns="http://www.w3.org/2000/svg" xmlns:xlink="http://www.w3.org/1999/xlink" x="0px" y="0px" viewBox="0 0 737.008 737.008"
	 style="enable-background:new 0 0 737.008 737.008;" xml:space="preserve">
<sodipodi:namedview  bordercolor="#666666" borderopacity="1.0" id="base" inkscape:current-layer="layer1-5" inkscape:cx="669.92794" inkscape:cy="429.87092" inkscape:document-units="mm" inkscape:pageopacity="0.0" inkscape:pageshadow="2" inkscape:window-height="1017" inkscape:window-maximized="1" inkscape:window-width="1920" inkscape:window-x="-8" inkscape:window-y="-8" inkscape:zoom="0.5" pagecolor="#ffffff" showgrid="false" units="mm">
	</sodipodi:namedview>
<g id="layer1" transform="translate(0,-36.999874)" inkscape:groupmode="layer" inkscape:label="Layer 1">
	<g id="layer1-5" transform="matrix(0.23956802,-0.0798509,0.07985088,0.23956802,-34.760558,87.669312)" inkscape:label="Layer 1">
		<circle id="path4486" style="fill:#0D2485;" cx="1117.554" cy="1699.876" r="1436.825"/>
		<path id="path6" inkscape:connector-curvature="0" style="fill:#FFFFFF;" d="M1721.668,674.37
			c48.02,53.243,48.03,139.579,0.023,192.836c-0.008,0.008-0.015,0.017-0.023,0.025l-112.422,124.574h115.077
			c203.703,0,368.837,183.145,368.837,409.067c0,0.036,0,0.073,0,0.109l0,818.133c0,225.921-165.134,409.066-368.837,409.066
			l-1229.458,0c-203.703,0-368.837-183.145-368.837-409.066l0-818.133c0-225.921,165.134-409.066,368.837-409.066l114.684,0
			L497.325,867.34c-48.854-52.301-50.23-138.623-3.072-192.806c47.157-54.183,124.99-55.708,173.844-3.408
			c1.026,1.098,2.034,2.215,3.024,3.352l260.841,289.292c7.77,8.618,14.262,17.999,19.475,28.035l316.02,0
			c5.213-10.036,11.803-19.635,19.573-28.144l260.744-289.292c48.007-53.257,125.852-53.268,173.872-0.025
			C1721.653,674.353,1721.66,674.362,1721.668,674.37L1721.668,674.37z M1724.323,1265.607l-1229.458,0
			c-64.37-0.026-117.861,55.018-122.651,126.211l-0.295,10.254l0,818.133c0,71.887,50.162,130.792,113.798,135.919l9.147,0.437
			l1229.458,0c64.37,0.027,117.862-55.017,122.651-126.21l0.294-10.145l0-818.134c0-75.268-55.08-136.355-122.946-136.355
			L1724.323,1265.607z M740.757,1538.318c67.866,0,122.946,61.087,122.946,136.356l0,136.355
			c0.042,75.307-54.969,136.393-122.87,136.439c-67.901,0.046-122.979-60.965-123.021-136.272c0-0.056,0-0.112,0-0.167l0-136.355
			C617.811,1599.405,672.891,1538.318,740.757,1538.318z M1478.432,1538.318c67.866,0,122.946,61.087,122.946,136.355v136.355
			c0,75.307-55.045,136.356-122.946,136.356c-67.901,0-122.946-61.049-122.946-136.356l0-136.355
			C1355.486,1599.405,1410.566,1538.318,1478.432,1538.318z"/>
		
			<ellipse id="path4489" transform="matrix(-1 2.019725e-06 -2.019725e-06 -1 1481.5237 3485.7935)" style="fill:#FFD400;" cx="740.76" cy="1742.897" rx="175.268" ry="267.514"/>
	</g>
</g>
</svg>
